<svg width="11" height="11" viewBox="0 0 11 11" fill="none" xmlns="http://www.w3.org/2000/svg">
<path d="M1.22487 2.44973C1.90134 2.44973 2.44973 1.90134 2.44973 1.22487C2.44973 0.548391 1.90134 0 1.22487 0C0.548391 0 0 0.548391 0 1.22487C0 1.90134 0.548391 2.44973 1.22487 2.44973Z" fill="#0B120B"/>
<path d="M3.60646 3.3779V10.1734H5.71639V6.8129C5.71639 5.92616 5.88321 5.06741 6.98268 5.06741C8.06704 5.06741 8.08047 6.08123 8.08047 6.86888V10.174H10.1915V6.44735C10.1915 4.61677 9.79741 3.20996 7.65781 3.20996C6.63056 3.20996 5.94199 3.77369 5.66041 4.30719H5.63186V3.3779H3.60646ZM0.168106 3.3779H2.28139V10.1734H0.168106V3.3779Z" fill="#0B120B"/>
</svg>
